<?xml version="1.0" encoding="UTF-8"?>
<svg width="800px" height="800px" viewBox="0 0 800 800" version="1.1" xmlns="http://www.w3.org/2000/svg">
    <title>Africa Map</title>
    <g stroke="none" stroke-width="1" fill="none" fill-rule="evenodd">
        <path d="M400,140 C380,140 350,150 340,170 C330,190 330,230 320,240 C310,250 270,270 260,290 C250,310 240,350 230,370 C220,390 200,400 190,420 C180,440 170,480 160,500 C150,520 140,550 140,570 C140,590 150,620 160,640 C170,660 190,670 210,680 C230,690 270,700 290,710 C310,720 330,730 350,740 C370,750 400,760 420,760 C440,760 470,750 490,740 C510,730 530,710 550,700 C570,690 600,680 620,670 C640,660 660,640 680,630 C700,620 720,600 740,590 C760,580 790,550 790,520 C790,490 780,460 770,440 C760,420 740,410 730,390 C720,370 710,340 700,320 C690,300 660,290 650,270 C640,250 620,210 610,190 C600,170 590,150 580,130 C570,110 550,90 530,80 C510,70 470,70 450,70 C430,70 420,140 400,140 Z" id="Africa" fill="#16A34A" fill-rule="nonzero" opacity="0.2"></path>
        <path d="M400,160 C385,160 360,168 352,183 C344,198 344,229 337,237 C330,245 299,260 291,275 C283,290 276,320 268,335 C260,350 245,358 237,373 C229,388 221,418 214,433 C206,448 198,470 198,485 C198,500 206,523 214,538 C221,553 237,560 252,568 C267,575 299,583 314,590 C329,598 345,605 360,613 C375,620 400,628 415,628 C430,628 455,620 470,613 C485,605 500,590 516,583 C531,575 553,568 569,560 C584,553 599,538 614,530 C630,523 645,508 660,500 C676,493 698,470 698,448 C698,425 691,403 683,388 C676,373 660,365 653,350 C645,335 637,313 630,298 C622,283 599,275 591,260 C584,245 568,215 561,200 C553,185 546,169 538,155 C531,140 516,125 500,118 C485,110 455,110 440,110 C424,110 415,160 400,160 Z" id="Africa-Inner" stroke="#16A34A" stroke-width="2" opacity="0.5"></path>
        
        <!-- Highlighted regions -->
        <circle cx="380" cy="390" r="15" fill="#2563EB" opacity="0.7"></circle>
        <circle cx="450" cy="360" r="15" fill="#2563EB" opacity="0.7"></circle>
        <circle cx="340" cy="350" r="15" fill="#2563EB" opacity="0.7"></circle>
        <circle cx="290" cy="450" r="15" fill="#2563EB" opacity="0.7"></circle>
        <circle cx="320" cy="520" r="15" fill="#2563EB" opacity="0.7"></circle>
    </g>
</svg> 