<svg width="800" height="600" viewBox="0 0 800 600" xmlns="http://www.w3.org/2000/svg">
  <!-- Kenya flag -->
  <rect width="800" height="600" fill="#FFFFFF"/>
  <rect width="800" height="180" fill="#000000"/>
  <rect y="180" width="800" height="240" fill="#BB0000"/>
  <rect y="420" width="800" height="180" fill="#006600"/>
  
  <!-- Maasai shield -->
  <g transform="translate(400, 300) scale(0.6)">
    <path d="M0,-200 C-120,-180 -150,-80 -150,0 C-150,80 -120,180 0,200 C120,180 150,80 150,0 C150,-80 120,-180 0,-200 Z" fill="#FFFFFF" stroke="#000000" stroke-width="10"/>
    <path d="M0,-150 C-90,-135 -120,-60 -120,0 C-120,60 -90,135 0,150 C90,135 120,60 120,0 C120,-60 90,-135 0,-150 Z" fill="#BB0000"/>
    <path d="M0,-100 C-60,-90 -80,-40 -80,0 C-80,40 -60,90 0,100 C60,90 80,40 80,0 C80,-40 60,-90 0,-100 Z" fill="#000000"/>
  </g>
  
  <!-- Crossing spears -->
  <line x1="320" y1="200" x2="480" y2="400" stroke="#000000" stroke-width="8"/>
  <line x1="480" y1="200" x2="320" y2="400" stroke="#000000" stroke-width="8"/>
</svg> 