<svg width="800" height="600" viewBox="0 0 800 600" xmlns="http://www.w3.org/2000/svg">
  <!-- Rwanda flag -->
  <rect width="800" height="150" fill="#20603D"/>
  <rect y="150" width="800" height="150" fill="#FAD201"/>
  <rect y="300" width="800" height="150" fill="#00A1DE"/>
  <rect y="450" width="800" height="150" fill="#20603D"/>
  
  <!-- Sun symbol -->
  <g transform="translate(700, 150)">
    <circle cx="0" cy="0" r="70" fill="#FAD201"/>
    <path d="M0,-90 L0,-60 M0,60 L0,90 M-90,0 L-60,0 M60,0 L90,0 M-64,-64 L-42,-42 M-64,64 L-42,42 M64,-64 L42,-42 M64,64 L42,42" stroke="#E5BE01" stroke-width="12"/>
  </g>
  
  <!-- "R" letter -->
  <path d="M150,250 V350 M150,250 H200 C220,250 240,270 240,290 C240,310 220,330 200,330 H150 M200,330 L240,350" stroke="#E5BE01" stroke-width="15" fill="none"/>
</svg> 